<?xml version="1.0" encoding="UTF-8" standalone="no"?>
<!-- Created with Inkscape (http://www.inkscape.org/) -->

<svg
   xmlns:dc="http://purl.org/dc/elements/1.1/"
   xmlns:cc="http://creativecommons.org/ns#"
   xmlns:rdf="http://www.w3.org/1999/02/22-rdf-syntax-ns#"
   xmlns:svg="http://www.w3.org/2000/svg"
   xmlns="http://www.w3.org/2000/svg"
   xmlns:sodipodi="http://sodipodi.sourceforge.net/DTD/sodipodi-0.dtd"
   xmlns:inkscape="http://www.inkscape.org/namespaces/inkscape"
   width="64px"
   height="64px"
   id="svg3853"
   version="1.1"
   inkscape:version="0.48.5 r10040"
   sodipodi:docname="gear.svg">
  <defs
     id="defs3855" />
  <sodipodi:namedview
     id="base"
     pagecolor="#ffffff"
     bordercolor="#666666"
     borderopacity="1.0"
     inkscape:pageopacity="0.0"
     inkscape:pageshadow="2"
     inkscape:zoom="5.5"
     inkscape:cx="35.646545"
     inkscape:cy="38.246509"
     inkscape:current-layer="layer1"
     showgrid="false"
     inkscape:document-units="px"
     inkscape:grid-bbox="true"
     showguides="true"
     inkscape:snap-global="false"
     inkscape:window-width="1366"
     inkscape:window-height="715"
     inkscape:window-x="-5"
     inkscape:window-y="-2"
     inkscape:window-maximized="1"
     inkscape:guide-bbox="true">
    <inkscape:grid
       type="xygrid"
       id="grid3867" />
  </sodipodi:namedview>
  <metadata
     id="metadata3858">
    <rdf:RDF>
      <cc:Work
         rdf:about="">
        <dc:format>image/svg+xml</dc:format>
        <dc:type
           rdf:resource="http://purl.org/dc/dcmitype/StillImage" />
      </cc:Work>
    </rdf:RDF>
  </metadata>
  <g
     id="layer1"
     inkscape:label="Layer 1"
     inkscape:groupmode="layer">
    <path
       style="fill:#bcc3b7;fill-opacity:1;fill-rule:evenodd;stroke:#000000;stroke-width:0.48349205;stroke-miterlimit:4;stroke-opacity:1;stroke-dasharray:none"
       d="m 35.40625,12.823423 -6.5625,0.03125 0,4.5 c -1.710144,0.410557 -3.318932,1.115295 -4.75,2.0625 l -3.15625,-3.1875 -4.625,4.625 3.25,3.28125 c -0.828621,1.36161 -1.440537,2.870541 -1.8125,4.46875 l -4.78125,-0.03125 -0.03125,6.53125 4.71875,0 c 0.32167,1.594481 0.881974,3.105943 1.65625,4.46875 l -3.21875,3.0625 4.46875,4.75 3.15625,-2.96875 c 1.533925,1.082385 3.273952,1.876501 5.15625,2.3125 l 0,4.28125 6.5625,0 0,-4.25 c 1.694908,-0.385287 3.298969,-1.053939 4.71875,-1.96875 l 3.0625,3.09375 4.65625,-4.59375 -3.125,-3.15625 c 0.927067,-1.478985 1.594596,-3.137767 1.96875,-4.90625 l 4.40625,0 0.03125,-6.53125 -4.46875,0 c -0.355841,-1.57453 -0.953361,-3.062422 -1.75,-4.40625 l 3.34375,-3.15625 -4.5,-4.75 -3.3125,3.15625 c -1.51781,-1.034684 -3.217631,-1.805792 -5.0625,-2.21875 l 0,-4.5 z"
       id="path3091"
       inkscape:connector-curvature="0" />
    <path
       sodipodi:type="arc"
       style="fill:#ffffff;fill-opacity:1;fill-rule:evenodd;stroke:#000000;stroke-width:0.5;stroke-miterlimit:4;stroke-opacity:1;stroke-dasharray:none"
       id="path3932"
       sodipodi:cx="32.012653"
       sodipodi:cy="35.844296"
       sodipodi:rx="7.0710678"
       sodipodi:ry="6.942503"
       d="m 39.083721,35.844296 a 7.0710678,6.942503 0 1 1 -14.142135,0 7.0710678,6.942503 0 1 1 14.142135,0 z"
       transform="translate(-0.12856487,-4.0497934)" />
  </g>
  <g
     inkscape:groupmode="layer"
     id="layer3"
     inkscape:label="teeth" />
</svg>
