<?xml version="1.0" encoding="UTF-8" standalone="no"?>
<!-- Created with Inkscape (http://www.inkscape.org/) -->

<svg
   xmlns:dc="http://purl.org/dc/elements/1.1/"
   xmlns:cc="http://creativecommons.org/ns#"
   xmlns:rdf="http://www.w3.org/1999/02/22-rdf-syntax-ns#"
   xmlns:svg="http://www.w3.org/2000/svg"
   xmlns="http://www.w3.org/2000/svg"
   xmlns:xlink="http://www.w3.org/1999/xlink"
   xmlns:sodipodi="http://sodipodi.sourceforge.net/DTD/sodipodi-0.dtd"
   xmlns:inkscape="http://www.inkscape.org/namespaces/inkscape"
   width="64"
   height="64"
   id="svg3000"
   version="1.1"
   inkscape:version="0.48.5 r10040"
   sodipodi:docname="heavytruck.svg">
  <defs
     id="defs3002">
    <linearGradient
       id="linearGradient3798">
      <stop
         style="stop-color:#00cc66;stop-opacity:1;"
         offset="0"
         id="stop3800" />
      <stop
         style="stop-color:#66ff99;stop-opacity:1;"
         offset="1"
         id="stop3802" />
    </linearGradient>
    <linearGradient
       id="linearGradient3782">
      <stop
         style="stop-color:#00cc66;stop-opacity:1;"
         offset="0"
         id="stop3784" />
      <stop
         style="stop-color:#cca700;stop-opacity:0.10980392;"
         offset="1"
         id="stop3786" />
    </linearGradient>
    <linearGradient
       inkscape:collect="always"
       xlink:href="#linearGradient3798"
       id="linearGradient3794"
       x1="29.372307"
       y1="38.473679"
       x2="29.145144"
       y2="20.257801"
       gradientUnits="userSpaceOnUse"
       gradientTransform="translate(-1.3636364,5.2727273)" />
    <linearGradient
       inkscape:collect="always"
       xlink:href="#linearGradient3798"
       id="linearGradient3796"
       x1="29.372307"
       y1="38.473679"
       x2="29.145144"
       y2="20.257801"
       gradientUnits="userSpaceOnUse"
       gradientTransform="matrix(0.99938233,0,0,1.168102,-1.3475771,0.0330362)" />
  </defs>
  <sodipodi:namedview
     id="base"
     pagecolor="#ffffff"
     bordercolor="#666666"
     borderopacity="1.0"
     inkscape:pageopacity="0.0"
     inkscape:pageshadow="2"
     inkscape:zoom="5.5"
     inkscape:cx="47.174331"
     inkscape:cy="29.775336"
     inkscape:current-layer="layer3"
     showgrid="false"
     inkscape:document-units="px"
     inkscape:grid-bbox="true"
     inkscape:window-width="1366"
     inkscape:window-height="715"
     inkscape:window-x="-5"
     inkscape:window-y="-2"
     inkscape:window-maximized="1"
     inkscape:snap-nodes="false"
     showguides="false">
    <inkscape:grid
       type="xygrid"
       id="grid5416"
       empspacing="5"
       visible="true"
       enabled="true"
       snapvisiblegridlinesonly="true" />
  </sodipodi:namedview>
  <metadata
     id="metadata3005">
    <rdf:RDF>
      <cc:Work
         rdf:about="">
        <dc:format>image/svg+xml</dc:format>
        <dc:type
           rdf:resource="http://purl.org/dc/dcmitype/StillImage" />
        <dc:title />
      </cc:Work>
    </rdf:RDF>
  </metadata>
  <g
     id="layer1"
     inkscape:label="Layer 1"
     inkscape:groupmode="layer" />
  <g
     inkscape:groupmode="layer"
     id="layer2"
     inkscape:label="load">
    <rect
       style="fill:url(#linearGradient3796);fill-opacity:1;fill-rule:evenodd;stroke:#000000;stroke-width:0.32737753;stroke-linecap:butt;stroke-linejoin:miter;stroke-miterlimit:4;stroke-opacity:1;stroke-dasharray:none"
       id="rect3027"
       width="39.442749"
       height="23.058163"
       x="4.9149904"
       y="13.299578" />
  </g>
  <g
     inkscape:groupmode="layer"
     id="layer4"
     inkscape:label="cabinet">
    <path
       style="fill:url(#linearGradient3794);fill-opacity:1;fill-rule:evenodd;stroke:#000000;stroke-width:0.303;stroke-linecap:butt;stroke-linejoin:miter;stroke-miterlimit:4;stroke-opacity:1;stroke-dasharray:none"
       d="m 45.917614,15.897727 0,22.15625 -41.1562504,0 0,5.78125 4,0 c -0.1590078,-0.310193 -0.25,-0.661761 -0.25,-1.03125 0,-1.283642 1.0758112,-2.3125 2.4062504,-2.3125 1.330439,0 2.40625,1.028858 2.40625,2.3125 -0.120211,1.835638 0.92743,1.548348 0.84375,0.0625 0,-1.283642 1.107061,-2.3125 2.4375,-2.3125 1.330439,0 2.40625,1.028858 2.40625,2.3125 0,0.345596 -0.07853,0.673953 -0.21875,0.96875 l 19.84375,0 c -0.141056,-0.295515 -0.21875,-0.622067 -0.21875,-0.96875 0,-1.283642 1.075811,-2.34375 2.40625,-2.34375 1.330439,0 2.40625,1.060108 2.40625,2.34375 0,0.346683 -0.07769,0.673235 -0.21875,0.96875 l 2.90625,0 1.375,0 0,-0.03125 4.09375,-0.03125 c -0.151363,-0.304124 -0.25,-0.64008 -0.25,-1 0,-1.283642 1.075811,-2.3125 2.40625,-2.3125 1.330439,0 2.40625,1.028858 2.40625,2.3125 0,0.3452 -0.07883,0.674215 -0.21875,0.96875 l 4.53125,-0.0625 0.28125,-14.125 -4.28125,-13.65625 -10.34375,0 z"
       id="rect3850"
       inkscape:connector-curvature="0" />
    <path
       style="fill:#ffffff;fill-opacity:1;stroke:#000000;stroke-width:0.24759816;stroke-miterlimit:4;stroke-opacity:1"
       d="m 50.518231,21.709666 6.60921,0.09642 1.57492,5.452126 -8.18413,0 z"
       id="rect5467"
       inkscape:connector-curvature="0"
       sodipodi:nodetypes="ccccc" />
  </g>
  <g
     inkscape:groupmode="layer"
     id="layer3"
     inkscape:label="wheels">
    <path
       sodipodi:type="arc"
       style="fill:#ffffff;fill-opacity:1;fill-rule:evenodd;stroke:#000000;stroke-width:0.6;stroke-linecap:butt;stroke-linejoin:miter;stroke-miterlimit:4;stroke-opacity:1;stroke-dasharray:none"
       id="path3856"
       sodipodi:cx="14"
       sodipodi:cy="42.31818"
       sodipodi:rx="1.8181819"
       sodipodi:ry="1.8636364"
       d="m 15.818182,42.31818 a 1.8181819,1.8636364 0 1 1 -3.636364,0 1.8181819,1.8636364 0 1 1 3.636364,0 z"
       transform="translate(-3.0909091,0.49999997)" />
    <path
       sodipodi:type="arc"
       style="fill:#ffffff;fill-opacity:1;fill-rule:evenodd;stroke:#000000;stroke-width:0.60000002;stroke-linecap:butt;stroke-linejoin:miter;stroke-miterlimit:4;stroke-opacity:1;stroke-dasharray:none"
       id="path3856-3"
       sodipodi:cx="14"
       sodipodi:cy="42.31818"
       sodipodi:rx="1.8181819"
       sodipodi:ry="1.8636364"
       d="m 15.818182,42.31818 a 1.8181819,1.8636364 0 1 1 -3.636364,0 1.8181819,1.8636364 0 1 1 3.636364,0 z"
       transform="translate(2.6363636,0.56428371)" />
    <path
       sodipodi:type="arc"
       style="fill:#ffffff;fill-opacity:1;fill-rule:evenodd;stroke:#000000;stroke-width:0.6;stroke-linecap:butt;stroke-linejoin:miter;stroke-miterlimit:4;stroke-opacity:1;stroke-dasharray:none"
       id="path3856-5"
       sodipodi:cx="14"
       sodipodi:cy="42.31818"
       sodipodi:rx="1.8181819"
       sodipodi:ry="1.8636364"
       d="m 15.818182,42.31818 a 1.8181819,1.8636364 0 1 1 -3.636364,0 1.8181819,1.8636364 0 1 1 3.636364,0 z"
       transform="translate(39.588152,0.48022767)" />
    <path
       sodipodi:type="arc"
       style="fill:#ffffff;fill-opacity:1;fill-rule:evenodd;stroke:#000000;stroke-width:0.60000002;stroke-linecap:butt;stroke-linejoin:miter;stroke-miterlimit:4;stroke-opacity:1;stroke-dasharray:none"
       id="path3856-4"
       sodipodi:cx="14"
       sodipodi:cy="42.31818"
       sodipodi:rx="1.8181819"
       sodipodi:ry="1.8636364"
       d="m 15.818182,42.31818 a 1.8181819,1.8636364 0 1 1 -3.636364,0 1.8181819,1.8636364 0 1 1 3.636364,0 z"
       transform="translate(26.863636,0.5642841)" />
  </g>
</svg>
