<?xml version="1.0" encoding="UTF-8" standalone="no"?>
<!-- Created with Inkscape (http://www.inkscape.org/) -->

<svg
   xmlns:dc="http://purl.org/dc/elements/1.1/"
   xmlns:cc="http://creativecommons.org/ns#"
   xmlns:rdf="http://www.w3.org/1999/02/22-rdf-syntax-ns#"
   xmlns:svg="http://www.w3.org/2000/svg"
   xmlns="http://www.w3.org/2000/svg"
   xmlns:xlink="http://www.w3.org/1999/xlink"
   xmlns:sodipodi="http://sodipodi.sourceforge.net/DTD/sodipodi-0.dtd"
   xmlns:inkscape="http://www.inkscape.org/namespaces/inkscape"
   width="64px"
   height="64px"
   id="svg4672"
   version="1.1"
   inkscape:version="0.48.5 r10040"
   sodipodi:docname="semitruck.svg">
  <defs
     id="defs4674">
    <linearGradient
       inkscape:collect="always"
       xlink:href="#linearGradient3798"
       id="linearGradient3794"
       x1="29.372307"
       y1="38.473679"
       x2="29.145144"
       y2="20.257801"
       gradientUnits="userSpaceOnUse"
       gradientTransform="translate(-1.8338073,5.7434191)" />
    <linearGradient
       id="linearGradient3798">
      <stop
         style="stop-color:#00cc66;stop-opacity:1;"
         offset="0"
         id="stop3800" />
      <stop
         style="stop-color:#66ff99;stop-opacity:1;"
         offset="1"
         id="stop3802" />
    </linearGradient>
    <linearGradient
       inkscape:collect="always"
       xlink:href="#linearGradient3798"
       id="linearGradient3796"
       x1="29.372307"
       y1="38.473679"
       x2="29.145144"
       y2="20.257801"
       gradientUnits="userSpaceOnUse"
       gradientTransform="matrix(0.99938233,0,0,1.168102,-1.3475771,0.0330362)" />
    <linearGradient
       id="linearGradient4657">
      <stop
         style="stop-color:#00cc66;stop-opacity:1;"
         offset="0"
         id="stop4659" />
      <stop
         style="stop-color:#66ff99;stop-opacity:1;"
         offset="1"
         id="stop4661" />
    </linearGradient>
    <linearGradient
       y2="20.257801"
       x2="29.145144"
       y1="38.473679"
       x1="29.372307"
       gradientTransform="matrix(0.99938233,0,0,1.168102,-1.8177473,0.50372769)"
       gradientUnits="userSpaceOnUse"
       id="linearGradient4670"
       xlink:href="#linearGradient3798"
       inkscape:collect="always" />
  </defs>
  <sodipodi:namedview
     id="base"
     pagecolor="#ffffff"
     bordercolor="#666666"
     borderopacity="1.0"
     inkscape:pageopacity="0.0"
     inkscape:pageshadow="2"
     inkscape:zoom="22"
     inkscape:cx="20.94622"
     inkscape:cy="28.698481"
     inkscape:current-layer="layer1"
     showgrid="true"
     inkscape:document-units="px"
     inkscape:grid-bbox="true"
     inkscape:snap-nodes="true"
     inkscape:snap-smooth-nodes="false"
     inkscape:window-width="1366"
     inkscape:window-height="715"
     inkscape:window-x="-5"
     inkscape:window-y="-2"
     inkscape:window-maximized="1" />
  <metadata
     id="metadata4677">
    <rdf:RDF>
      <cc:Work
         rdf:about="">
        <dc:format>image/svg+xml</dc:format>
        <dc:type
           rdf:resource="http://purl.org/dc/dcmitype/StillImage" />
        <dc:title />
      </cc:Work>
    </rdf:RDF>
  </metadata>
  <g
     id="layer1"
     inkscape:label="Layer 1"
     inkscape:groupmode="layer">
    <path
       style="fill:url(#linearGradient3794);fill-opacity:1;fill-rule:evenodd;stroke:#000000;stroke-width:0.303;stroke-linecap:butt;stroke-linejoin:miter;stroke-miterlimit:4;stroke-opacity:1;stroke-dasharray:none"
       d="m 45.447443,16.368419 0,22.15625 -41.1562503,0 0,5.78125 4,0 c -0.159007,-0.310193 -0.25,-0.661761 -0.25,-1.03125 0,-1.283642 1.0758117,-2.3125 2.4062513,-2.3125 1.330439,0 2.40625,1.028858 2.40625,2.3125 -0.120211,1.835638 0.92743,1.548348 0.84375,0.0625 0,-1.283642 1.10706,-2.3125 2.437499,-2.3125 1.330439,0 2.40625,1.028858 2.40625,2.3125 0,0.345596 -0.07853,0.673953 -0.21875,0.96875 l 19.84375,0 c -0.141056,-0.295515 -0.21875,-0.622067 -0.21875,-0.96875 0,-1.283642 1.075811,-2.34375 2.40625,-2.34375 1.330439,0 2.40625,1.060108 2.40625,2.34375 0,0.346683 -0.07769,0.673235 -0.21875,0.96875 l 2.90625,0 1.375,0 0,-0.03125 4.09375,-0.03125 c -0.151363,-0.304124 -0.25,-0.64008 -0.25,-1 0,-1.283642 1.075811,-2.3125 2.40625,-2.3125 1.330439,0 2.40625,1.028858 2.40625,2.3125 0,0.3452 -0.07883,0.674215 -0.21875,0.96875 l 4.53125,-0.0625 0.735795,-12.397727 C 60.463538,27.10895 57.198094,16.368419 55.791193,16.368419 z"
       id="rect3850"
       inkscape:connector-curvature="0"
       sodipodi:nodetypes="cccccssccssccssscccccssscccsc" />
    <path
       style="fill:#ffffff;fill-opacity:1;stroke:#000000;stroke-width:0.2845993;stroke-miterlimit:4;stroke-opacity:1"
       d="m 48.339288,21.835222 8.121042,0.103676 1.935177,5.862414 -10.056219,0 z"
       id="rect5467"
       inkscape:connector-curvature="0"
       sodipodi:nodetypes="ccccc" />
    <path
       sodipodi:type="arc"
       style="fill:#ffffff;fill-opacity:1;fill-rule:evenodd;stroke:#000000;stroke-width:0.60000002;stroke-linecap:butt;stroke-linejoin:miter;stroke-miterlimit:4;stroke-opacity:1;stroke-dasharray:none"
       id="path3856"
       sodipodi:cx="14"
       sodipodi:cy="42.31818"
       sodipodi:rx="1.8181819"
       sodipodi:ry="1.8636364"
       d="m 15.818182,42.31818 a 1.8181819,1.8636364 0 1 1 -3.636364,0 1.8181819,1.8636364 0 1 1 3.636364,0 z"
       transform="translate(-3.5610793,1.1070553)" />
    <path
       sodipodi:type="arc"
       style="fill:#ffffff;fill-opacity:1;fill-rule:evenodd;stroke:#000000;stroke-width:0.60000002;stroke-linecap:butt;stroke-linejoin:miter;stroke-miterlimit:4;stroke-opacity:1;stroke-dasharray:none"
       id="path3856-3"
       sodipodi:cx="14"
       sodipodi:cy="42.31818"
       sodipodi:rx="1.8181819"
       sodipodi:ry="1.8636364"
       d="m 15.818182,42.31818 a 1.8181819,1.8636364 0 1 1 -3.636364,0 1.8181819,1.8636364 0 1 1 3.636364,0 z"
       transform="translate(2.1207382,1.1525108)" />
    <path
       sodipodi:type="arc"
       style="fill:#ffffff;fill-opacity:1;fill-rule:evenodd;stroke:#000000;stroke-width:0.60000002;stroke-linecap:butt;stroke-linejoin:miter;stroke-miterlimit:4;stroke-opacity:1;stroke-dasharray:none"
       id="path3856-5"
       sodipodi:cx="14"
       sodipodi:cy="42.31818"
       sodipodi:rx="1.8181819"
       sodipodi:ry="1.8636364"
       d="m 15.818182,42.31818 a 1.8181819,1.8636364 0 1 1 -3.636364,0 1.8181819,1.8636364 0 1 1 3.636364,0 z"
       transform="translate(39.027072,0.99637421)" />
    <path
       sodipodi:type="arc"
       style="fill:#ffffff;fill-opacity:1;fill-rule:evenodd;stroke:#000000;stroke-width:0.60000002;stroke-linecap:butt;stroke-linejoin:miter;stroke-miterlimit:4;stroke-opacity:1;stroke-dasharray:none"
       id="path3856-4"
       sodipodi:cx="14"
       sodipodi:cy="42.31818"
       sodipodi:rx="1.8181819"
       sodipodi:ry="1.8636364"
       d="m 15.818182,42.31818 a 1.8181819,1.8636364 0 1 1 -3.636364,0 1.8181819,1.8636364 0 1 1 3.636364,0 z"
       transform="translate(26.356534,1.0644434)" />
  </g>
</svg>
