<?xml version="1.0" encoding="UTF-8" standalone="no"?>
<!-- Created with Inkscape (http://www.inkscape.org/) -->

<svg
   xmlns:dc="http://purl.org/dc/elements/1.1/"
   xmlns:cc="http://creativecommons.org/ns#"
   xmlns:rdf="http://www.w3.org/1999/02/22-rdf-syntax-ns#"
   xmlns:svg="http://www.w3.org/2000/svg"
   xmlns="http://www.w3.org/2000/svg"
   xmlns:sodipodi="http://sodipodi.sourceforge.net/DTD/sodipodi-0.dtd"
   xmlns:inkscape="http://www.inkscape.org/namespaces/inkscape"
   width="64px"
   height="64px"
   id="svg2985"
   version="1.1"
   inkscape:version="0.48.5 r10040"
   sodipodi:docname="van.svg">
  <defs
     id="defs2987" />
  <sodipodi:namedview
     id="base"
     pagecolor="#ffffff"
     bordercolor="#666666"
     borderopacity="1.0"
     inkscape:pageopacity="0.0"
     inkscape:pageshadow="2"
     inkscape:zoom="11.313709"
     inkscape:cx="20.586275"
     inkscape:cy="29.87395"
     inkscape:current-layer="layer1"
     showgrid="true"
     inkscape:document-units="px"
     inkscape:grid-bbox="true"
     inkscape:snap-global="false"
     showguides="false"
     inkscape:window-width="1920"
     inkscape:window-height="1022"
     inkscape:window-x="-8"
     inkscape:window-y="-4"
     inkscape:window-maximized="1">
    <inkscape:grid
       type="xygrid"
       id="grid3017"
       empspacing="5"
       visible="true"
       enabled="true"
       snapvisiblegridlinesonly="true" />
  </sodipodi:namedview>
  <metadata
     id="metadata2990">
    <rdf:RDF>
      <cc:Work
         rdf:about="">
        <dc:format>image/svg+xml</dc:format>
        <dc:type
           rdf:resource="http://purl.org/dc/dcmitype/StillImage" />
        <dc:title></dc:title>
      </cc:Work>
    </rdf:RDF>
  </metadata>
  <g
     inkscape:groupmode="layer"
     id="layer1"
     inkscape:label="body">
    <path
       style="fill:#0000ff;fill-rule:evenodd;stroke:#000000;stroke-width:0.18515171;stroke-linecap:butt;stroke-linejoin:miter;stroke-miterlimit:4;stroke-opacity:1;stroke-dasharray:none"
       d="M 43.360144,14.874658 10.733409,14.674961 c -0.907782,0.0082 -2.0450136,0.925884 -2.1713799,1.570562 l -0.022104,0.907465 -0.044207,19.1812 c -0.071399,0.840849 0.8298655,1.389132 1.7504349,1.389132 l 5.233365,0.01893 c -0.01442,-0.113756 0.24998,-0.199857 0.24998,-0.316813 0,-1.792146 1.421069,-3.270913 3.563669,-3.270913 2.1426,0 3.407419,1.541267 3.407419,3.333413 0,0.116461 0.4518,0.141023 0.43749,0.254313 l 19.724698,0 c -0.0015,-0.03678 0.65625,0.14874 0.65625,0.111654 0,-1.792146 1.077319,-3.485187 3.219919,-3.485187 2.1426,0 3.469918,1.568041 3.469918,3.360187 0,0.03708 0.40775,-0.02343 0.40625,0.01335 l 6.56448,-0.02677 c 0.964529,-2.029249 0.519765,-3.4686 -0.187556,-5.167395 -1.357819,-4.499373 -7.456983,-12.677973 -9.861048,-16.312633 -0.851725,-1.287707 -2.617628,-1.494472 -3.770843,-1.360798 z"
       id="rect2993"
       inkscape:connector-curvature="0"
       sodipodi:nodetypes="cccccccsssccssscccsc" />
    <path
       sodipodi:type="arc"
       style="stroke-width:0.30000001;stroke-miterlimit:4;stroke-dasharray:none"
       id="path3883"
       sodipodi:cx="18.727272"
       sodipodi:cy="50.045456"
       sodipodi:rx="3.090909"
       sodipodi:ry="3.2272727"
       d="m 21.818181,50.045456 a 3.090909,3.2272727 0 1 1 -6.181818,0 3.090909,3.2272727 0 1 1 6.181818,0 z"
       transform="translate(0.53693182,-12.454545)" />
    <path
       sodipodi:type="arc"
       style="stroke-width:0.30000001;stroke-miterlimit:4;stroke-dasharray:none"
       id="path3883-9"
       sodipodi:cx="18.727272"
       sodipodi:cy="50.045456"
       sodipodi:rx="3.090909"
       sodipodi:ry="3.2272727"
       d="m 21.818181,50.045456 a 3.090909,3.2272727 0 1 1 -6.181818,0 3.090909,3.2272727 0 1 1 6.181818,0 z"
       transform="translate(28.210228,-12.196024)" />
  </g>
  <g
     inkscape:groupmode="layer"
     id="layer2"
     inkscape:label="wheels" />
</svg>
